<svg width="28" height="31" viewBox="0 0 28 31" fill="none" xmlns="http://www.w3.org/2000/svg">
<path d="M5.17399 0.76088L0.76088 6.64502V27.2395C0.76088 28.0198 1.07085 28.7681 1.62259 29.3199C2.17434 29.8716 2.92267 30.1816 3.70295 30.1816H24.2974C25.0777 30.1816 25.8261 29.8716 26.3778 29.3199C26.9295 28.7681 27.2395 28.0198 27.2395 27.2395V6.64502L22.8264 0.76088H5.17399Z" stroke="white" stroke-width="1.5" stroke-linecap="round" stroke-linejoin="round"/>
<path d="M0.76088 6.64482H27.2395" stroke="white" stroke-width="1.5" stroke-linecap="round" stroke-linejoin="round"/>
<path d="M19.8843 12.5293C19.8843 14.0898 19.2644 15.5865 18.1609 16.69C17.0574 17.7935 15.5608 18.4134 14.0002 18.4134C12.4396 18.4134 10.943 17.7935 9.83948 16.69C8.73599 15.5865 8.11606 14.0898 8.11606 12.5293" stroke="white" stroke-width="1.5" stroke-linecap="round" stroke-linejoin="round"/>
</svg>
