<svg width="22" height="22" viewBox="0 0 22 22" fill="none" xmlns="http://www.w3.org/2000/svg">
<path d="M16.3209 1H6.307C3.54174 1 1.30005 3.23858 1.30005 6V16C1.30005 18.7614 3.54174 21 6.307 21H16.3209C19.0862 21 21.3279 18.7614 21.3279 16V6C21.3279 3.23858 19.0862 1 16.3209 1Z" stroke="white" stroke-linecap="round" stroke-linejoin="round"/>
<path d="M15.3192 10.3703C15.4428 11.2025 15.3005 12.0525 14.9124 12.7993C14.5244 13.5461 13.9104 14.1517 13.1579 14.53C12.4053 14.9082 11.5525 15.0399 10.7206 14.9062C9.88883 14.7726 9.1204 14.3804 8.52465 13.7855C7.9289 13.1905 7.53617 12.4232 7.40232 11.5925C7.26847 10.7619 7.40031 9.9102 7.7791 9.15868C8.15789 8.40716 8.76433 7.79404 9.51216 7.40654C10.26 7.01904 11.1112 6.87689 11.9446 7.0003C12.7947 7.12619 13.5817 7.52176 14.1894 8.12861C14.7971 8.73545 15.1932 9.52138 15.3192 10.3703Z" stroke="white" stroke-linecap="round" stroke-linejoin="round"/>
<path d="M16.8216 5.5H16.8316" stroke="white" stroke-linecap="round" stroke-linejoin="round"/>
</svg>
