<svg width="22" height="21" viewBox="0 0 22 21" fill="none" xmlns="http://www.w3.org/2000/svg">
<path d="M15.4281 7C17.0216 7 18.5498 7.63214 19.6766 8.75736C20.8034 9.88258 21.4364 11.4087 21.4364 13V20H17.4309V13C17.4309 12.4696 17.2199 11.9609 16.8443 11.5858C16.4687 11.2107 15.9593 11 15.4281 11C14.8969 11 14.3875 11.2107 14.0119 11.5858C13.6363 11.9609 13.4253 12.4696 13.4253 13V20H9.41974V13C9.41974 11.4087 10.0528 9.88258 11.1795 8.75736C12.3063 7.63214 13.8346 7 15.4281 7Z" stroke="white" stroke-linecap="round" stroke-linejoin="round"/>
<path d="M5.41413 8H1.40857V20H5.41413V8Z" stroke="white" stroke-linecap="round" stroke-linejoin="round"/>
<path d="M3.41135 5C4.51746 5 5.41413 4.10457 5.41413 3C5.41413 1.89543 4.51746 1 3.41135 1C2.30525 1 1.40857 1.89543 1.40857 3C1.40857 4.10457 2.30525 5 3.41135 5Z" stroke="white" stroke-linecap="round" stroke-linejoin="round"/>
</svg>
