<svg width="24" height="20" viewBox="0 0 24 20" fill="none" xmlns="http://www.w3.org/2000/svg">
<path d="M23.3839 1.01006C22.4249 1.68553 21.3632 2.20217 20.2395 2.54006C19.6364 1.84757 18.8349 1.35675 17.9433 1.13398C17.0518 0.911216 16.1133 0.967251 15.2547 1.29451C14.3961 1.62177 13.6588 2.20446 13.1426 2.96377C12.6265 3.72309 12.3563 4.62239 12.3686 5.54006V6.54006C10.6088 6.58562 8.86498 6.19587 7.29253 5.4055C5.72008 4.61513 4.36778 3.44869 3.35605 2.01006C3.35605 2.01006 -0.64951 11.0101 8.36301 15.0101C6.30067 16.408 3.84389 17.109 1.35327 17.0101C10.3658 22.0101 21.3811 17.0101 21.3811 5.51006C21.3802 5.23151 21.3533 4.95365 21.301 4.68006C22.323 3.67355 23.0442 2.40277 23.3839 1.01006Z" stroke="white" stroke-linecap="round" stroke-linejoin="round"/>
</svg>
